<?xml version="1.0" encoding="UTF-8"?>
<svg width="471px" height="471px" viewBox="0 0 471 471" version="1.1" xmlns="http://www.w3.org/2000/svg" xmlns:xlink="http://www.w3.org/1999/xlink">
    <!-- Generator: Sketch 62 (91390) - https://sketch.com -->
    <title>Group 11</title>
    <desc>Created with Sketch.</desc>
    <g id="Web" stroke="none" stroke-width="1" fill="none" fill-rule="evenodd">
        <g id="Artboard-Copy-16" transform="translate(-417.000000, -155.000000)" stroke="#FFFFFF" stroke-width="1.5">
            <g id="Group-11" transform="translate(418.000000, 155.490239)">
                <path d="M444,337.509761 C416.250386,337.328419 387.907469,335.741675 361.022382,328.84217 C334.137294,321.942665 308.173239,308.273995 291.176529,286.272083 C279.869875,271.637199 273.038419,254.089505 266.961304,236.612649 C252.640107,195.422463 240.231605,154.62613 213.442576,119.485407 C205.288902,108.78905 196.228323,98.7727253 186.258012,89.7481162 C176.248148,80.6781716 165.300301,72.6056092 153.502054,66.0262867 C141.031396,59.0701124 127.645358,53.8508565 113.671667,50.895545 C108.498632,49.8018247 103.263442,49.005619 98,48.5097614" id="Stroke-1"></path>
                <path d="M444,337.220137 C417.002843,340.557387 388.465332,342.173647 360.640059,338.06931 C332.913707,333.9027 305.614132,322.574731 285.925878,302.760691 C272.608185,289.357908 263.295409,272.844321 255.084904,255.730652 C235.631237,215.3553 219.665267,172.19749 194.329995,132.996828 C191.037314,127.921603 187.65419,122.936956 184.180624,118.074025 C179.531302,111.555206 174.715226,105.316614 169.76066,99.3865547 C161.030109,88.9417251 151.850172,79.4847669 142.158667,71.5846261 C131.938637,63.191965 121.223999,56.5882285 110.235207,52.3197182 C106.897304,51.0233139 103.401127,50.3637894 100.19041,49.0560628 C99.5997059,48.8126331 98.5483091,48.7984803 98,48.5097614" id="Stroke-3"></path>
                <path d="M444,336.928079 C417.758705,343.779562 389.01797,348.657321 360.257442,347.274582 C331.683525,345.900327 302.976719,336.860215 280.674021,319.215454 C265.292851,307.045093 253.544916,291.557857 243.196555,274.809473 C218.612128,235.247318 199.085959,189.727228 175.20556,146.477771 C172.103879,140.898746 168.985234,135.381931 165.860933,129.958429 C161.673523,122.677138 157.449356,115.687098 153.244981,109.005276 C145.803208,97.1770653 138.358609,86.3753047 130.809394,77.1287715 C122.807793,67.3308395 114.794881,59.3171773 106.796107,53.7409805 C104.367352,52.0443689 101.952735,50.5626614 99.5635639,49.3043412 C99.3854363,48.7755639 98.1583356,48.990468 98,48.5097614" id="Stroke-5"></path>
                <path d="M444,336.392631 C418.514318,346.811363 389.583784,354.945135 359.881127,356.334868 C330.472613,357.71039 300.283492,350.994771 275.431345,335.386567 C257.938399,324.396596 243.802627,309.825719 231.321402,293.345025 C201.598948,254.358621 178.508824,206.192593 156.086175,158.609172 C153.178697,152.493212 150.327785,146.405672 147.550409,140.383497 C143.825556,132.300881 140.199694,124.508147 136.740701,117.030875 C130.594836,103.733208 124.898669,91.498446 119.476845,80.8722495 C113.712799,69.5753435 108.389965,60.1257303 103.381071,53.1998033 C101.862282,51.0938895 100.388745,49.2096509 98.9604607,47.5612973 C99.1640973,46.8166962 97.7923787,47.1918387 98.0271264,46.5097614" id="Stroke-7"></path>
                <path d="M444,335.60446 C419.283095,349.517578 390.173771,360.8459 359.531484,365.012183 C329.299307,369.121782 297.582249,364.839296 270.234984,351.348475 C250.606272,341.663992 234.114193,328.093813 219.500136,312.004025 C184.652101,273.898123 158.006265,223.454921 137.045402,171.903545 C134.333019,165.291342 131.750741,158.684808 129.318364,152.109449 C126.060111,143.280897 123.03661,134.741434 120.327056,126.530739 C115.482102,111.860887 111.528076,98.2793714 108.233054,86.3615344 C104.714593,73.6416171 102.081404,62.8319548 100.064794,54.6099226 C99.4595287,52.1073186 98.9221432,49.8371194 98.461123,47.810662 C99.0409337,46.8555345 97.5277692,47.3883653 98.1556618,46.5097614" id="Stroke-9"></path>
                <path d="M443,335.718796 C419.110483,353.101075 389.90717,367.590075 358.416443,374.523773 C327.444685,381.344453 294.27859,379.541804 264.542205,368.109961 C242.816001,359.757877 224.040025,347.15629 207.339927,331.463641 C167.472356,294.246577 137.355206,241.55725 117.913595,186.076361 C115.400542,178.97596 113.093384,171.85013 111.014686,164.729951 C108.233687,155.162916 105.819351,145.88408 103.856293,136.94995 C100.333505,120.915419 98.1363468,105.999774 96.9602041,92.8020129 C95.6994468,78.6718476 95.7445746,66.5195099 96.7204628,57.0089847 C97.0222548,54.1157055 97.4255843,51.4597656 97.9248104,49.0552924 C98.8837756,47.894025 97.2309708,48.5834392 98.2491662,47.5097614" id="Stroke-11"></path>
                <path d="M441,336.526523 C417.855594,357.482045 388.4445,375.207537 355.993215,384.957125 C324.171421,394.519711 289.430818,395.239384 257.211005,385.753299 C233.312903,378.718069 212.192469,366.973797 193.35006,351.585825 C148.328701,315.03833 114.638192,259.790668 96.6454559,200.057798 C94.3194417,192.430396 92.2813564,184.743494 90.5481371,177.033924 C88.2249458,166.675165 86.4211556,156.602574 85.1932234,146.88982 C82.9801225,129.396663 82.5256464,113.065183 83.4543584,98.5102193 C84.4508184,82.8842457 87.1607378,69.3124572 91.1268178,58.4635264 C92.3378131,55.1598301 93.2891077,51.8618005 95.1437088,49.3089442 C96.2700191,47.7562636 94.6835871,48.7819395 96.0921806,47.5097614" id="Stroke-13"></path>
                <path d="M444,334.715696 C421.585784,359.123933 391.948927,379.9807 358.521243,392.499846 C325.825718,404.744932 289.486363,408.019518 254.758321,400.50125 C228.666353,394.850541 205.186409,384.00118 184.185626,369.001373 C133.974842,333.328447 96.6828332,275.838134 80.1230555,212.182897 C77.991599,204.068479 76.2163275,195.866475 74.8283366,187.61644 C72.9682591,176.518448 71.7724951,165.711467 71.2777936,155.271782 C70.3845041,136.421017 71.6763816,118.765377 74.7096082,102.93209 C77.9746378,85.9065043 83.3541627,70.9886326 90.3167323,58.8565605 C92.4425351,55.1638222 94.4580901,51.5021628 97.1520929,48.555318 C98.7294838,46.8290264 96.9315974,47.9761204 98.7323106,46.5097614" id="Stroke-15"></path>
                <path d="M444,335.893857 C422.306147,363.830721 392.388573,387.818203 357.989454,403.20864 C324.363699,418.104343 286.4377,424.038312 249.154754,418.423799 C220.851896,414.160614 194.982444,404.141565 171.79852,389.483333 C116.348602,354.560839 75.4141313,294.630299 60.2896236,226.849054 C58.3462985,218.22091 56.8363973,209.476858 55.7939139,200.653649 C54.3973261,188.782884 53.813762,177.203306 54.0517202,166.008205 C54.4823112,145.738288 57.5587703,126.712271 62.6748709,109.535142 C68.2498908,91.066053 76.2753133,74.7426917 86.2525592,61.2916087 C89.2950244,57.1952196 92.3431552,53.1836419 95.9210262,49.8081495 C97.9351721,47.9083748 95.9380232,49.1748913 98.1363034,47.5097614" id="Stroke-17"></path>
                <path d="M444,336.763369 C423.026413,368.420364 392.857718,395.778084 357.454144,414.06778 C322.919264,431.80264 283.382292,440.395496 243.527366,436.642524 C213.009491,433.768754 184.731485,424.510093 159.357646,410.107099 C98.6426879,375.735673 54.0496844,312.999284 40.3634818,240.662796 C38.6118977,231.469577 37.3713106,222.122712 36.6729481,212.673415 C35.7361203,199.957694 35.7928977,187.537887 36.7467587,175.505042 C38.5466037,153.695689 43.3301032,133.166729 50.5834215,114.541285 C58.4357419,94.5017192 69.1666785,76.6758097 82.1658741,61.8175656 C86.1289396,57.2878213 90.1970433,52.9145694 94.6796224,49.0762371 C97.1182136,46.9906199 94.9351209,48.3848251 97.5326889,46.5097614" id="Stroke-19"></path>
                <path d="M443,335.234209 C422.832261,370.241833 392.528227,400.655926 356.259167,421.636726 C320.950746,442.000527 279.974842,453.168776 237.686915,451.309288 C205.081883,449.874341 174.494476,441.474096 147.032685,427.495387 C81.2870445,394.075546 33.2154508,329.267998 21.0190266,253.218613 C19.4661362,243.561728 18.4941628,233.729366 18.1456126,223.761151 C17.6780452,210.348496 18.3439745,197.227359 20.0357183,184.50529 C23.1500004,161.407448 29.6761074,139.61153 39.0331224,119.757178 C49.1325778,98.3801402 62.5248409,79.2559982 78.5014764,63.1630767 C83.3726784,58.2582168 88.4309072,53.5741181 93.8121827,49.3145601 C96.6572593,47.0644945 94.3052537,48.573029 97.2920174,46.5097614" id="Stroke-21"></path>
                <path d="M99,46.5097614 C102.242267,46.5524454 105.348732,46.814241 108.571195,47.1187206 C112.277451,47.4658843 115.961074,48.0150859 119.616404,48.6951852 C157.516412,55.83196 190.148443,79.2199792 215.798,107.582114 C245.230202,140.124441 261.752749,179.473453 278.445048,220.828616 C285.568982,238.417294 293.137101,256.333217 304.442598,271.764927 C321.378209,294.851312 345.763112,310.761084 370.198941,320.535734 C371.766319,321.164612 373.339356,321.759343 374.909564,322.339847 C397.775185,330.72015 420.70022,334.684077 443,337.509761" id="Stroke-27"></path>
                <path d="M99,46.6301161 C102.237893,46.4224303 105.22128,46.5333857 108.453517,46.595976 C112.118416,46.6642562 115.772004,46.9601374 119.400141,47.366974 C156.942736,51.6857012 190.138918,71.780016 217.72181,97.0494064 C250.021562,126.637524 270.619654,164.109168 289.747261,205.208201 C297.950866,222.727781 306.284553,240.827742 317.644044,256.907746 C334.602686,280.854206 357.525274,298.846058 379.661718,311.440923 C381.075645,312.246061 382.495228,313.014214 383.909155,313.773832 C404.47614,324.747041 424.240014,332.03027 443,337.509761" id="Stroke-29"></path>
                <path d="M97,46.3337065 C100.245678,45.8766737 103.108678,45.8426092 106.36853,45.6580929 C109.996886,45.4508668 113.628077,45.4820927 117.245095,45.6211896 C154.546299,47.040546 188.485605,63.8599189 217.994347,86.0217493 C253.359483,112.583584 278.001126,148.132784 299.623862,188.891022 C308.930029,206.306524 318.054779,224.55377 329.506779,241.248239 C346.537376,266.001814 368.049561,286.014739 387.951663,301.417595 C389.215918,302.39695 390.485843,303.34508 391.747264,304.279017 C410.047787,317.850903 426.721218,328.391043 442,336.509761" id="Stroke-31"></path>
                <path d="M97,45.7672857 C100.241272,45.0613504 102.978221,44.8827403 106.253492,44.4518079 C109.834758,43.9783493 113.435857,43.7458727 117.025623,43.6097888 C153.963093,42.2092586 188.648107,55.6617195 219.919017,74.7985184 C258.34396,98.3155179 286.875089,132.035975 310.938136,172.492586 C321.319274,189.820603 331.213087,208.231621 342.724704,225.553968 C359.775382,251.134906 379.815172,273.157818 397.41834,291.398731 C398.528986,292.549774 399.648131,293.672466 400.75311,294.786653 C416.741309,310.923936 430.261721,324.759133 442,335.509761" id="Stroke-33"></path>
                <path d="M97,47.0706862 C100.236897,46.1188915 102.845106,45.7987938 106.138641,45.1161077 C109.672891,44.3767672 113.241125,43.8810408 116.809358,43.470296 C153.383747,39.2637033 188.865011,49.2858751 221.840016,65.480549 C263.395773,85.887481 295.742089,117.877415 322.240468,158.053917 C333.698461,175.302363 344.360681,193.885022 355.92912,211.841649 C373.002832,238.262451 391.588795,262.275439 406.878391,283.373555 C407.838416,284.699269 408.804104,285.999489 409.749969,287.29121 C423.436692,305.99001 433.80156,323.125148 442,336.509761" id="Stroke-35"></path>
                <path d="M97,47.3984642 C100.235277,46.1985034 102.720468,45.7456881 106.023678,44.8032661 C109.513701,43.8099023 113.051844,43.0429463 116.595647,42.358063 C152.806409,35.3592354 189.121901,41.8712865 223.758898,55.2010391 C268.486676,72.4136836 304.59554,102.766464 333.529052,142.656669 C346.059736,159.824032 357.489351,178.576249 369.114271,197.16432 C386.213404,224.418145 403.363487,250.406918 416.32441,274.372171 C417.133937,275.866462 417.946294,277.343772 418.733177,278.815422 C430.120334,300.063784 437.329652,320.497078 442,336.509761" id="Stroke-37"></path>
                <path d="M97,47.9906739 C100.230909,46.5393084 102.590435,45.9553605 105.906219,44.7506137 C109.352145,43.5033464 112.860313,42.4601773 116.376968,41.4963799 C152.228179,31.6939928 189.386464,34.633575 225.679025,45.2041654 C273.590976,59.156551 313.445459,88.0477972 344.812438,127.756253 C358.415076,144.886335 370.611617,163.856137 382.293249,183.123582 C399.415371,211.283476 415.15403,239.312974 425.766237,266.205758 C426.425433,267.875395 427.087458,269.530859 427.715533,271.189157 C436.862232,295.026136 440.862675,318.826264 442,337.509761" id="Stroke-39"></path>
                <path d="M98,48.0202374 C101.224566,46.3192423 103.460002,45.6076594 106.786308,44.1391336 C110.186091,42.6394229 113.659354,41.3211517 117.146746,40.0822602 C152.625455,27.4920614 190.593947,26.7691384 228.517222,34.6249009 C279.576153,45.2050905 323.148778,72.6818316 356.923356,112.144918 C371.593578,129.211569 384.54554,148.370444 396.276631,168.289097 C413.40555,197.313744 427.745121,227.344813 435.994472,257.132072 C436.503167,258.971982 437.006211,260.809057 437.478168,262.646131 C444.331431,289.068255 445.179258,316.179283 442.794039,337.509761" id="Stroke-41"></path>
                <path d="M96,47.6188141 C99.2547902,45.6652142 101.386649,44.8303909 104.752593,43.0925956 C108.147037,41.3406027 111.612733,39.7447841 115.10408,38.2199539 C150.570463,22.8836265 189.667847,18.3744452 229.623104,23.582152 C284.318971,30.7093844 332.074895,56.8955743 368.601507,96.1748592 C384.484998,113.20071 398.322131,132.577695 410.215511,153.17852 C427.524041,183.110057 440.597353,215.202479 446.531218,247.922438 C446.896028,249.938508 447.246588,251.957417 447.565796,253.979166 C452.171524,283.027607 449.84871,313.498655 443.889194,337.509761" id="Stroke-43"></path>
                <path d="M96,46.7465015 C99.2493423,44.538786 101.265586,43.5759371 104.634536,41.5619308 C107.989247,39.5564705 111.415153,37.6706541 114.880929,35.867449 C149.980091,17.6644782 189.85217,9.38055971 231.506973,11.9756937 C289.328749,15.5764066 340.893904,40.5762926 379.854686,79.7340449 C396.8105,96.7462736 411.41403,116.376426 423.36056,137.695836 C440.686589,168.589611 452.428077,202.804929 455.908092,238.524342 C456.13022,240.720663 456.318175,242.922681 456.477652,245.133245 C458.778676,276.870225 453.285266,310.763644 443.78215,337.509761" id="Stroke-45"></path>
                <circle id="Oval" cx="234.5" cy="235.009761" r="234.5"></circle>
            </g>
        </g>
    </g>
</svg>